<?xml version="1.0" encoding="UTF-8" standalone="no"?>
<svg
   version="1.1"
   viewBox="0 0 799.99999 600"
   id="svg114"
   sodipodi:docname="chainraise.svg"
   inkscape:version="1.2.2 (b0a8486541, 2022-12-01)"
   width="800"
   height="600"
   inkscape:export-filename="chainraise.png"
   inkscape:export-xdpi="96"
   inkscape:export-ydpi="96"
   xmlns:inkscape="http://www.inkscape.org/namespaces/inkscape"
   xmlns:sodipodi="http://sodipodi.sourceforge.net/DTD/sodipodi-0.dtd"
   xmlns="http://www.w3.org/2000/svg"
   xmlns:svg="http://www.w3.org/2000/svg">
  <defs
     id="defs118">
    <clipPath
       clipPathUnits="userSpaceOnUse"
       id="clipPath1076">
      <path
         style="fill:#000000;fill-opacity:1;stroke:none;stroke-width:1px;stroke-linecap:butt;stroke-linejoin:miter;stroke-opacity:1"
         d="m 331.18234,237.36615 c 17.47632,22.17051 -0.50767,39.70399 32.02219,67.01447 27.52651,23.10993 37.98986,8.2167 69.23599,22.21208 31.59421,14.15126 24.73576,37.84844 53.59288,56.97223 33.86143,22.44017 67.19043,-4.01234 108.16327,30.13654 21.39146,17.82874 22.40382,34.03565 44.32277,51.21171 40.40376,31.66106 123.99856,37.09623 123.99856,37.09623 L 525.32406,787.63111 43.78879,490.05776 250.73746,186.04104 c 0,0 60.75389,26.34506 80.44488,51.32511 z"
         id="path1078"
         sodipodi:nodetypes="ssssssccccs"
         inkscape:label="mask" />
    </clipPath>
  </defs>
  <sodipodi:namedview
     id="namedview116"
     pagecolor="#ffffff"
     bordercolor="#666666"
     borderopacity="1.0"
     inkscape:showpageshadow="2"
     inkscape:pageopacity="0.0"
     inkscape:pagecheckerboard="0"
     inkscape:deskcolor="#d1d1d1"
     showgrid="false"
     inkscape:zoom="0.70710678"
     inkscape:cx="267.99347"
     inkscape:cy="304.05592"
     inkscape:window-width="1920"
     inkscape:window-height="988"
     inkscape:window-x="0"
     inkscape:window-y="0"
     inkscape:window-maximized="1"
     inkscape:current-layer="svg114" />
  <g
     id="g1019"
     inkscape:label="chainraise"
     transform="translate(56.585896,26.311917)">
    <path
       fill="#dee5e1"
       fill-opacity="1"
       d="m 454.90158,52.348717 q 14.85,4.87 26.48,9.31 16.38,6.26 30.77,17.19 20.31,15.6 34.48,35.060003 21.77,29.91 40.62,65.38 16.73,31.46 26.96,69.37 3.17,11.76 3.98,19.56 1.4,13.42 -0.81,26.32 -3.12,18.19 -9.69,38.44 -4.46,13.76 -9.5,27.33 -7.86,21.32 -18.85,41.2 -8.49,15.37 -17.71,30.3 -10.55,17.09 -23.88,32.1 -14.35,16.17 -34.56,29.4 -19.96,11.83 -45.75,18.04 -42.43,10.23 -75.65,16.08 -12.45,2.19 -19.81,2.63 -11.65,0.68 -22.79,-0.71 -15.22,-1.91 -31.85,-5.58 -13.84,-3.07 -13.95,-3.09 -19.51,-4.18 -38.91,-8.83 -21.51,-5.34 -33.48,-10.31 -21.62,-8.99 -37.87,-23.63 -9.43,-8.49 -20.69,-21.35 -30.7,-37.38 -48.5,-77.71 -15.089997,-34.19 -24.539997,-70.35 -4.65,-17.75 -4.96,-27.9 -0.38,-12.12 1.98,-24 2.16,-10.9 5.48,-21.5 9.869997,-29.95 26.479997,-60.81 17.81,-33.11 36.87,-58.63 10.37,-13.88 26.44,-27.770003 15.57,-13.94 34.91,-21.91 5.77,-2.38 11.64,-4.48 40.89,-14.65 92.45,-27.65 33.71,-8.5 65.7,-0.47 34.48,8.65 68.51,18.97 z m -311.21,103.290003 q -15.01,7.84 -21.09,23.22 -1.31,3.31 -1.86,6.61 -0.56,3.4 -0.57,6.88 -0.01,13 0.06,26 -0.39,120.17 0.21,158 0.08,4.72 3.54,12.75 l 2.71,4.79 q 6.09,10.51 16.06,16.4 80.57,47.59 182.09,105.6 5.04,2.88 10.33,5.25 9.93,4.46 20.49,4.12 6.52,-0.2 13.6,-3 6.3,-2.49 12.62,-6.22 36.48,-21.59 119.31,-69.98 37.2,-21.47 59.69,-35.27 18.59,-11.41 22.96,-32.43 0.9,-4.33 1.01,-10.59 0.09,-4.31 0.09,-10.67 0.05,-64.21 -0.06,-128.42 0,-1.76 -0.16,-5.54 -0.12,-2.77 -0.07,-5.54 0.25,-13.78 -0.21,-22.25 -0.92,-17.16 -11.61,-29.83 -3.94,-4.67 -11.88,-10.07 -10.02,-6.8 -20.43,-13 -12.39,-7.38 -12.46,-7.43 -72.41,-44.020003 -144.89,-87.930003 -12.34,-7.48 -17.73,-9.08 -10.58,-3.16 -21.2,-0.14 -5.38,1.53 -17.88,8.84 -91.79,53.700003 -182.67,108.930003 z"
       id="path12"
       inkscape:label="decoration"
       style="display:inline" />
    <path
       id="path3226"
       style="color:#000000;display:inline;fill:#51b7c3;fill-opacity:1;stroke-linecap:round;stroke-linejoin:round;-inkscape-stroke:none"
       inkscape:label="right-bg"
       d="m 352.41228,48.456137 c -3.74914,0.10394 -7.43239,1.25202 -10.62956,3.20099 -18.17142,9.80213 -35.77164,20.60958 -53.52886,31.13156 -31.3541,18.702883 -62.76935,37.303443 -94.04009,56.145523 -5.32011,3.18503 -10.57319,6.47941 -15.83457,9.75918 -10.46491,6.33529 -21.68962,11.49774 -31.38606,19.04019 -4.68809,3.6783 -8.82601,8.2351 -11.24276,13.73732 -1.18849,2.59268 -1.99226,5.3854 -2.0372,8.25257 -0.24285,4.38787 -0.17891,8.78602 -0.2916,13.17822 -0.54216,40.73263 -0.48627,81.46989 -0.49811,122.20523 0.0425,14.76294 -0.0365,29.53257 0.53701,44.28706 0.2257,4.33328 0.41616,8.70657 1.38149,12.95083 0.65166,2.73171 1.93929,5.27882 3.67596,7.47946 2.28266,3.16306 5.26314,5.73058 8.43034,7.97311 6.59369,4.74097 13.61313,8.84428 20.52617,13.09329 30.64057,18.53219 61.68596,36.38205 92.68014,54.31314 19.84483,11.44017 39.67957,22.89022 59.57257,34.25099 5.24546,2.95743 10.53376,5.85291 16.00545,8.37439 1.27048,0.58137 2.76403,1.22535 4.15469,1.75299 4.93083,1.92467 10.25038,3.03817 15.55792,2.5918 7.61345,-0.55673 14.72565,-3.74039 21.28957,-7.45326 14.86236,-8.20432 29.53554,-16.74468 44.24516,-25.21808 21.74055,-12.5783 43.43866,-25.24338 65.02838,-38.05793 24.38202,-16.27819 48.79552,-32.56875 72.01205,-50.49402 4.57978,-3.55108 9.09554,-7.18493 13.52473,-10.92228 0.72615,-1.67925 0.26752,-3.55962 0.40082,-5.3293 0.0996,-46.02804 -0.0239,-92.05784 0.50044,-138.08382 0.11654,-7.02939 0.15195,-14.06228 0.42325,-21.08763 0.29079,-5.85959 0.38998,-11.7455 -0.13897,-17.59496 -0.0608,-0.49509 -0.13082,-1.34177 -0.21648,-1.97297 -0.77295,-6.58614 -2.59792,-13.17268 -6.28415,-18.75099 -2.2654,-3.57027 -5.33668,-6.54696 -8.70779,-9.0691 -5.85872,-4.44768 -12.18739,-8.22245 -18.42745,-12.10048 -15.42774,-9.42485 -30.92766,-18.73095 -46.37903,-28.11705 -28.07697,-17.02506 -56.17905,-34.009663 -84.09187,-51.302613 -7.33995,-4.55899 -14.59752,-9.2482 -21.87135,-13.911 -7.09175,-4.4368 -14.25773,-8.88019 -22.05802,-11.97615 -3.90681,-1.49487 -8.08028,-2.43835 -12.28222,-2.27621 z" />
    <path
       id="path3226-6"
       style="color:#000000;display:inline;fill:#f0b9a5;fill-opacity:1;stroke-linecap:round;stroke-linejoin:round;-inkscape-stroke:none"
       inkscape:label="left-bg"
       d="m 523.2207,135.60742 c -3.74914,0.10394 -7.43239,1.25202 -10.62956,3.20099 -18.17142,9.80213 -35.77164,20.60958 -53.52886,31.13156 -31.3541,18.70288 -62.76935,37.30344 -94.04009,56.14552 -5.32011,3.18503 -10.57319,6.47941 -15.83457,9.75918 -10.46491,6.33529 -21.68962,11.49774 -31.38606,19.04019 -4.68809,3.6783 -8.82601,8.2351 -11.24276,13.73732 -1.18849,2.59268 -1.99226,5.3854 -2.0372,8.25257 -0.24285,4.38787 -0.17891,8.78602 -0.2916,13.17822 -0.54216,40.73263 -0.48627,81.46989 -0.49811,122.20523 0.0425,14.76294 -0.0365,29.53257 0.53701,44.28706 0.2257,4.33328 0.41616,8.70657 1.38149,12.95083 0.65166,2.73171 1.93929,5.27882 3.67596,7.47946 2.28266,3.16306 5.26314,5.73058 8.43034,7.97311 6.59369,4.74097 13.61313,8.84428 20.52617,13.09329 30.64057,18.53219 61.68596,36.38205 92.68014,54.31314 19.84483,11.44017 39.67957,22.89022 59.57257,34.25099 5.24546,2.95743 10.53376,5.85291 16.00545,8.37439 1.27048,0.58137 2.76403,1.22535 4.15469,1.75299 4.93083,1.92467 10.25038,3.03817 15.55792,2.5918 7.61345,-0.55673 14.72565,-3.74039 21.28957,-7.45326 14.86236,-8.20432 29.53554,-16.74468 44.24516,-25.21808 21.74055,-12.5783 43.43866,-25.24338 65.02838,-38.05793 24.38202,-16.27819 48.79552,-32.56875 72.01205,-50.49402 4.57978,-3.55108 9.09554,-7.18493 13.52473,-10.92228 0.72615,-1.67925 0.26752,-3.55962 0.40082,-5.3293 0.0996,-46.02804 -0.0239,-92.05784 0.50044,-138.08382 0.11654,-7.02939 0.15195,-14.06228 0.42325,-21.08763 0.29079,-5.85959 0.38998,-11.7455 -0.13897,-17.59496 -0.0608,-0.49509 -0.13082,-1.34177 -0.21648,-1.97297 -0.77295,-6.58614 -2.59792,-13.17268 -6.28415,-18.75099 -2.2654,-3.57027 -5.33668,-6.54696 -8.70779,-9.0691 -5.85872,-4.44768 -12.18739,-8.22245 -18.42745,-12.10048 -15.42774,-9.42485 -30.92766,-18.73095 -46.37903,-28.11705 -28.07697,-17.02506 -56.17905,-34.00966 -84.09187,-51.30261 -7.33995,-4.55899 -14.59752,-9.2482 -21.87135,-13.911 -7.09175,-4.4368 -14.25773,-8.88019 -22.05802,-11.97615 -3.90681,-1.49487 -8.08028,-2.43835 -12.28222,-2.27621 z"
       clip-path="url(#clipPath1076)"
       transform="translate(-170.80842,-87.151283)" />
    <path
       id="path543"
       style="display:inline;fill:#ffffff;stroke-width:26.1333;stroke-linecap:round;stroke-linejoin:round;stroke-opacity:0.41115"
       d="m 292.00781,137.44922 c -9.77192,8.11753 -24.20792,3.58634 -33.95683,8.49256 1.66752,11.50538 10.8626,21.8227 20.26124,28.57721 11.34524,13.6988 22.33117,-9.98231 19.67695,-14.83172 4.22099,5.61559 27.69369,6.1058 10.46791,8.15565 -13.06917,8.36653 -21.91431,23.35348 -23.85405,38.51936 -0.77589,11.78901 25.83045,-0.0375 16.85791,11.61232 -11.85994,-2.31342 -27.96986,1.55129 -25.54171,16.84079 5.39319,13.32092 9.11874,28.06852 2.17975,41.89133 -2.52754,8.1328 -5.17579,35.55655 10.01548,27.76585 -7.4322,5.14215 -15.1726,16.60709 -1.07204,19.36962 14.55665,2.75664 -12.10509,2.51056 -6.80366,14.3462 0.81706,17.27549 2.13548,35.16607 9.96602,50.92078 13.26718,4.966 9.52204,-19.30461 14.81475,-27.13848 3.61682,-12.44335 3.1262,11.48796 5.63211,16.394 5.25588,20.93279 11.57223,41.59422 16.30194,62.6648 10.39179,8.98136 11.35741,-15.39873 14.96715,-21.6771 4.83775,-16.869 10.15756,-34.20965 8.6281,-51.95787 6.13869,10.42934 9.70567,22.68303 17.45005,31.93708 13.0213,-0.84014 8.69828,-21.5125 10.42286,-31.17835 -0.48431,-6.84236 -1.87754,-16.29145 2.80422,-5.36719 3.21014,6.64498 9.97127,29.3864 16.2061,13.03807 6.46742,-19.60159 9.27959,-40.48157 6.64606,-61.03508 4.18165,6.82989 15.18417,29.54756 19.56473,11.40289 3.19648,-11.14392 1.75556,-23.74515 1.75939,-34.5433 15.03102,1.5435 27.47353,-12.10591 33.71893,-24.55531 7.73689,-13.16535 2.02752,-33.57387 -15.15844,-34.1407 -5.55573,-1.31231 -14.70109,3.78362 -8.34292,-4.53491 2.92716,-14.15515 1.85833,-29.38444 -1.46433,-43.42839 -7.42973,-26.39541 -35.28986,-40.06098 -60.8196,-42.42463 -8.42382,-2.92294 -20.47158,0.0735 -23.22149,2.06136 -11.57229,-6.04332 -25.90693,-1.84048 -38.57973,-3.22891 -7.18113,1.09996 -12.65621,-3.53668 -19.52685,-3.94793 z m 150.05469,149.09961 -0.0361,0.0417 z"
       sodipodi:nodetypes="cccccccccccccccccccccccccccccccccccc"
       inkscape:label="hipster-bg" />
    <path
       id="path36"
       style="display:inline"
       d="m 277.73064,115.84872 4.71094,7.42969 c 0.91333,1.44666 0.61294,2.75635 -0.90039,3.92969 -6.69995,5.20662 -13.72989,6.0214 -21.08984,2.4414 -4.11333,-2 -7.05675,-5.23761 -8.83008,-9.71094 -0.24667,-0.62 -0.45248,-0.62 -0.61914,0 l -2.02149,7.66016 c -3.0933,18.00659 0.58153,33.98619 11.02149,47.93945 4.3933,5.86 10.36043,10.38055 17.90039,13.56055 l 2.07812,1 c -1.64,4.58 -2.94153,9.25291 -3.9082,14.01953 -0.60565,2.62274 -1.13837,5.33284 -2.44141,7.66992 -1.32666,2.3 -2.6189,4.62094 -3.8789,6.96094 -2.15333,3.99333 -3.358,6.36271 -3.61133,7.10938 -1.14,3.32662 -1.12263,6.9069 0.0508,10.74023 2.15333,7.03329 4.45992,14.20005 6.91992,21.5 0.14259,0.42702 0.13223,0.89033 -0.0293,1.31055 -3.17329,8.17995 -5.29156,16.6595 -6.35156,25.43945 -0.71333,6.07329 -0.18153,12.01989 1.5918,17.83984 0.007,0.04 0.14154,0.43303 0.4082,1.17969 1.07333,3.06666 -0.002,5.16435 -3.22851,6.29102 -5.29333,1.86 -10.23365,2.29212 -14.82032,1.29883 -0.32666,-0.0667 -0.43054,0.0547 -0.31054,0.36132 3.65329,9.48662 9.84369,16.84174 18.57031,22.06836 0.5,0.93333 0.75,1.58761 0.75,1.96094 0.06,13.51998 0.89333,24.43668 2.5,32.75 2.04666,10.59331 4.71334,19.26002 8,26 3.47333,7.12665 7.08652,14.18327 10.83984,21.16992 2.52667,4.7 3.77047,9.70622 3.73047,15.01953 0,0.34667 0.12248,0.40636 0.36914,0.17969 0.84667,-0.78 1.46295,-1.73581 1.84961,-2.86914 3.23333,-5.93329 5.84847,-12.12989 7.8418,-18.58984 0.51761,-1.20594 1.07806,-0.34828 1.11914,0.3789 1.54667,7.29333 2.44279,12.30149 2.68945,15.02149 0.46,5.10664 1.23055,11.08614 2.31055,17.93945 2.25333,14.28663 6.90761,27.5367 13.96094,39.75 4.63997,6.99997 10.16987,13.20271 16.58984,18.60938 0.25333,0.21331 0.2863,0.18964 0.0996,-0.0703 -2.59333,-3.65997 -4.07279,-7.75573 -4.43945,-12.28906 l 0.0781,-8.25 c 1.74667,-13.63328 5.96377,-25.40393 12.65039,-35.31055 5.19333,-7.69995 9.85385,-15.6888 13.98047,-23.96875 0.33333,-0.66666 0.68412,-0.67811 1.05078,-0.0312 2.08,3.67333 3.63663,7.53652 4.66992,11.58985 1.82,7.12662 3.12659,14.34997 3.91993,21.66992 0.26666,2.44 0.82015,2.50783 1.66015,0.20117 2.7,-7.41329 5.51589,-15.01106 8.44922,-22.79101 2.11333,-5.60667 4.75016,-10.94935 7.91016,-16.0293 4.03329,-6.5 7.98294,-13.05044 11.84961,-19.65039 9.28661,-15.82661 14.88439,-32.80618 16.79101,-50.93946 0.0729,-0.69967 0.86035,-1.07434 1.44922,-0.68945 6.00666,3.92666 9.43769,9.45656 10.29102,16.58984 0.0345,0.30638 0.17025,0.54224 0.32812,0.57032 0.16667,0.0267 0.2942,-0.15125 0.38086,-0.53125 1.47333,-6.24666 2.6431,-12.54397 3.50977,-18.89063 0.82,-5.99995 1.18937,-12.38178 1.10937,-19.14844 -0.0733,-6.80661 -0.36867,-13.81796 -0.88867,-21.03124 -0.036,-0.48446 0.2314,-0.93895 0.66992,-1.13868 14.57995,-6.71995 25.04397,-17.47824 31.39063,-32.27148 2.53995,-5.92 3.86518,-11.67311 3.97851,-17.25977 0.19334,-9.53995 -4.05671,-16.41561 -12.75,-20.6289 -3.18662,-1.54 -7.14867,-2.64388 -11.88867,-3.31055 -0.2741,-0.0301 -0.47158,-0.28091 -0.4414,-0.56055 0.66662,-7.96662 1.01434,-15.94616 1.04101,-23.93945 0.0267,-7.72662 -0.85706,-14.47671 -2.65039,-20.25 -6.33995,-20.3999 -19.60755,-34.80742 -39.80078,-43.2207 -8.69329,-3.62667 -16.67593,-5.9693 -23.94922,-7.0293 -13.40661,-1.96 -28.2401,-2.55573 -44.5,-1.78906 -13.03995,0.54 -24.87338,-0.28094 -35.5,-2.46094 -8.72662,-1.78666 -16.79761,-5.95338 -24.21094,-12.5 z m 13.73633,24.08789 c 0.14376,0.006 0.28931,0.0486 0.42383,0.043 7.04662,3.58 14.31416,5.31255 21.80078,5.19922 8.33328,-0.12 16.66671,-0.23008 25,-0.33008 2.32666,-0.0333 4.64255,0.12714 6.94922,0.48047 0.32654,0.0519 0.62888,0.19433 0.87109,0.41015 l 22.5,19.70899 c 0.25334,0.22667 0.21224,0.31 -0.12109,0.25 -3.64,-0.61333 -7.70589,-0.89628 -12.19922,-0.84961 -17.2799,0.17333 -27.94667,0.09 -32,-0.25 -6.92662,-0.58 -14.85268,-2.74361 -23.7793,-6.49023 -2.56221,-1.16292 -5.00284,-2.60764 -6.81054,-4.66993 -1.46667,-1.69995 -2.11589,-1.42945 -1.94922,0.81055 0.27333,3.69333 1.29193,7.20263 3.05859,10.5293 0.3019,0.57408 0.2546,1.23713 -0.11914,1.66992 l -7.54101,8.80078 c -0.19109,0.21892 -0.52568,0.27548 -0.82032,0.13867 -12.74657,-5.94662 -21.35169,-15.60833 -25.81836,-28.98828 -0.10666,-0.32 0.003,-0.44443 0.33008,-0.37109 2.39333,0.54 5.54256,0.98031 9.44922,1.32031 8.01995,0.69333 14.80605,-1.72028 20.35938,-7.24023 0.13025,-0.14841 0.27225,-0.17816 0.41601,-0.17188 z m 63.60547,4.82227 c 6.23995,0.52 12.11252,0.9758 17.61914,1.36914 11.26662,0.8 21.8675,3.86164 31.80078,9.18164 19.43324,10.40661 29.03522,26.83583 28.8086,49.28906 -0.0733,7.66662 -0.10938,15.38997 -0.10938,23.16992 0,1.26 -0.57094,2.16427 -1.71094,2.71094 -5.79995,2.77333 -10.8124,6.74663 -15.03906,11.91992 -0.18835,0.23121 -0.50388,0.32509 -0.80078,0.23828 l -9.53906,-2.76953 c -0.55134,-0.1615 -0.92752,-0.66467 -0.91993,-1.23047 0.1,-11.31995 0.0589,-22.33864 -0.12109,-33.05859 -0.0933,-5.52 -0.45961,-9.64753 -1.09961,-12.38086 -0.94,-4.02 -2.46675,-7.93047 -4.58008,-11.73047 -0.54,-0.96667 -1.36208,-1.48836 -2.46875,-1.56836 -1.50666,-0.11333 -1.91093,0.58322 -1.21093,2.08984 1.71995,3.68667 2.9607,7.49946 3.7207,11.43946 0.5,2.59333 0.78914,6.55734 0.86914,11.89062 0.18,12.40662 0.25094,24.81524 0.21094,37.22852 -0.001,0.30137 0.17167,0.58257 0.44922,0.73047 4.34662,2.32666 9.09361,4.05302 14.24023,5.17969 0.59341,0.1297 1.00978,0.66437 0.99023,1.27148 -0.30666,9.41995 -0.066,17.83981 0.72071,25.25976 0.43333,4.02667 0.85,4.02667 1.25,0 0.74,-7.40661 1.37177,-14.7102 1.89844,-21.91015 0.007,-0.0733 -0.0119,-1.39427 -0.0586,-3.96094 -0.04,-2.43333 0.75534,-4.37674 2.38867,-5.83008 4.5,-4.01995 9.7706,-6.33898 15.81055,-6.95898 6.26662,-0.65333 11.5795,0.87341 15.93945,4.58008 4.07333,3.46662 5.68027,8.10039 4.82032,13.90039 -1.79334,12.13328 -7.77594,21.66628 -17.94922,28.59961 -6.05333,4.13329 -12.63982,5.49956 -19.75977,4.09961 -0.24525,-0.0434 -0.46248,0.163 -0.43164,0.41015 0.8,7.28666 1.13839,14.5964 1.01172,21.92969 -0.11333,6.73329 -1.15447,13.31052 -3.12109,19.73047 -0.20667,0.66 -0.48032,0.69 -0.82032,0.0898 -4.81329,-8.39995 -10.00679,-16.55432 -15.58007,-24.46093 -1.02,-1.45334 -2.10644,-2.67659 -3.25977,-3.66993 -0.76667,-0.66666 -1.05271,-0.5 -0.85938,0.5 2.30667,11.88662 3.27063,23.83013 2.89063,35.83008 -0.21333,6.61995 -1.02498,13.22703 -2.43164,19.82031 -1.51333,7.10666 -3.47538,14.10362 -5.88867,20.99024 -0.23334,0.66 -0.47094,0.66 -0.71094,0 -2.98666,-8.39329 -6.76342,-16.50652 -11.33008,-24.33985 -1.93333,-3.31995 -4.32945,-6.32934 -7.18945,-9.02929 -1.18667,-1.12 -1.55604,-0.89361 -1.10938,0.67968 0.58,2.06 1.00907,4.10535 1.28907,6.13868 2.07329,15.07324 1.16282,30.2668 -2.73047,45.58008 -0.14,0.55995 -0.36016,0.59489 -0.66016,0.10156 -4.69329,-7.90662 -8.90844,-16.10518 -12.64844,-24.5918 -3.05329,-6.93329 -6.81772,-13.45503 -11.29101,-19.56836 -0.78667,-1.07333 -1.05722,-0.95705 -0.81055,0.34961 2.7,14.15328 2.30384,28.44563 -1.18945,42.87891 -3.59333,14.85324 -8.10264,29.59719 -13.5293,44.23047 -0.12,0.32 -0.21772,0.31364 -0.29101,-0.0195 -2.47334,-11.2599 -5.14621,-22.36083 -8.01954,-33.30078 -0.20666,-0.77333 -1.93612,-6.51213 -5.18945,-17.21875 -4.49329,-14.79324 -6.85961,-30.12366 -7.09961,-45.99023 -0.007,-0.48 -0.15478,-0.53039 -0.4414,-0.15039 -3.10667,4.08662 -5.55318,8.66075 -7.33985,13.7207 -3.50666,9.92662 -6.07565,20.10268 -7.70898,30.5293 -0.12,0.76666 -0.33086,0.79667 -0.63086,0.0898 -9.3998,-17.58495 -10.12445,-39.7296 -9.17969,-56.66992 0.0333,-0.61333 0.28333,-0.85094 0.75,-0.71094 11.15995,-0.76 20.54683,-5.15307 28.16016,-13.17968 0.19319,-0.20455 0.51417,-0.22963 0.75,-0.0586 1.45995,1.04667 2.90651,2.10326 4.33984,3.16992 11.04662,8.20662 23.21339,11.5493 36.5,10.0293 3.26666,-0.37333 6.69577,-1.69741 10.28906,-3.9707 6.76,-4.28 11.85149,-10.04241 15.27149,-17.28907 2.14662,-4.55328 3.70945,-9.30333 4.68945,-14.25 0.16667,-0.81995 -0.0771,-0.96611 -0.73047,-0.43945 -4.25329,3.42 -9.09291,5.98589 -14.51953,7.69922 -1.19333,0.37333 -2.90733,0.45977 -5.14062,0.25977 -1.42,-0.12667 -3.09597,-0.43946 -5.0293,-0.93946 -7.19995,-1.86666 -14.2473,-4.20314 -21.14063,-7.00976 -2.27329,-0.92667 -6.25903,-2.23326 -11.95898,-3.91993 -0.31333,-0.0933 -0.31551,-0.18795 -0.01,-0.28124 6.02666,-1.87334 10.61311,-5.40013 13.75977,-10.58008 0.81333,-1.33334 0.80188,-2.56589 -0.0312,-3.69922 l -7.19904,-9.75973 c -1.30667,-1.77333 -1.77992,-1.55623 -1.41992,0.65039 0.11333,0.68667 0.2769,1.92542 0.49023,3.71875 0.34,2.82 -0.70729,4.89714 -3.14062,6.23047 -1.88,1.02 -3.8831,1.62698 -6.00977,1.82031 -6.63328,0.58 -13.2733,0.68698 -19.91992,0.32032 -1.16667,-0.06 -2.27365,-0.3069 -3.32031,-0.74024 -1.08667,-0.44666 -1.80992,-1.21101 -2.16992,-2.29101 -0.80667,-2.42667 -0.25318,-4.71585 1.66015,-6.86914 1.72667,-1.94 3.47047,-3.86287 5.23047,-5.76954 1.74,-1.88662 2.94271,-3.73129 3.60938,-5.53124 2.44662,-6.64 2.25635,-13.23888 -0.57032,-19.79883 -0.46666,-1.08 -1.22906,-2.10365 -2.28906,-3.07032 -0.85333,-0.78662 -1.90992,-1.45643 -3.16992,-2.00976 -6.22666,-2.74667 -11.97977,-2.03776 -17.25977,2.12891 -1.16,0.91995 -1.8647,1.89015 -2.11132,2.91015 -0.36555,1.95285 0.46347,3.20939 0.83984,4.79102 0.0667,1.29333 0.36396,1.57627 0.89062,0.84961 0.19334,-0.27334 0.37435,-0.47295 0.54102,-0.59961 2.75333,-2.12667 6.29248,-3.14722 10.61914,-3.06055 5.60662,0.11333 8.69,3.03005 9.25,8.75 0.50667,5.19995 -1.10655,9.33683 -4.83984,12.41016 -4.04667,3.32662 -6.54047,7.39255 -7.48047,12.19922 -0.74667,3.78662 -0.47608,7.16729 0.81054,10.14062 1.44667,3.36 4.06915,5.87745 7.86915,7.55078 0.33329,0.14667 0.3414,0.30828 0.0215,0.48828 l -18.73047,10.28125 c -0.44267,0.23969 -0.99154,0.009 -1.12109,-0.4707 -2.83333,-10.49995 -2.19647,-20.72021 1.91015,-30.66016 1.48,-3.57995 2.28039,-7.26526 2.40039,-11.05859 0.0533,-1.78667 -0.21411,-4.18788 -0.80078,-7.20117 -0.31333,-1.58 -0.61487,-3.16334 -0.9082,-4.75 -0.88159,-4.10725 -2.48839,-8.16365 -3.61133,-11.87891 -0.84,-2.8 -1.07255,-5.20737 -0.69922,-7.2207 0.44,-2.36 1.32683,-4.5833 2.66016,-6.66992 0.16401,-0.25708 0.45402,-0.42062 0.7793,-0.43946 7.61995,-0.4 12.78357,-0.47403 15.49023,-0.2207 4.14666,0.38667 7.00989,-0.86028 8.58984,-3.74023 1.31334,-2.4 1.39357,-4.76632 0.24024,-7.09961 -1.28,-2.58667 -3.80675,-3.80063 -7.58008,-3.64063 -3.83333,0.16 -7.66977,0.16 -11.50977,0 -0.26144,-0.009 -0.45912,-0.24398 -0.42968,-0.50976 1.58666,-12.62662 7.04562,-23.56703 16.3789,-32.82032 2.76,-2.73995 5.84338,-4.41596 9.25,-5.02929 0.8,-0.14667 4.17758,-0.16702 10.13086,-0.0606 15.35328,0.26 30.70727,0.23631 46.06055,-0.0703 1.45333,-0.0267 2.51302,-0.19953 3.17969,-0.51953 1.18,-0.56667 1.60286,-1.4473 1.26953,-2.64063 -0.16667,-0.59333 -0.62753,-1.30844 -1.38086,-2.14844 -5.66666,-6.26662 -11.91166,-12.28106 -18.73828,-18.04101 -0.92667,-0.78667 -0.78675,-1.1262 0.41992,-1.01953 z m -4.63672,62.80664 c -4.09333,0.002 -7.77803,0.0163 -11.05469,0.043 -3.09331,0.0333 -4.92667,1.59303 -5.5,4.67968 -0.61333,3.27333 0.2673,5.83808 2.64063,7.69141 1.64667,1.28667 3.53659,1.92692 5.66992,1.91992 6.49998,-0.0333 13.00002,-0.0713 19.5,-0.11133 5.51998,-0.04 9.43667,0.31388 11.75,1.06055 3.30667,1.06667 4.70278,0.004 4.18945,-3.18945 -0.51333,-3.16 -2.06684,-6.03133 -4.66015,-8.61133 -2.27333,-2.22929 -5.52587,-3.40982 -9.0293,-3.44922 -4.91,-0.0233 -9.41253,-0.0349 -13.50586,-0.0332 z m 7.48828,24.21289 c -6.1534,0.22484 -12.86496,2.297 -16.00195,7.08984 -1.38,2.16 -0.83466,3.57667 1.63867,4.25 1.40667,0.38 3.2842,-0.0305 5.63086,-1.23047 5.73997,-2.75997 11.55281,-3.13557 17.43945,-1.1289 1.58,0.54 2.64786,0.80239 3.20117,0.78906 1.66,-0.0333 2.50883,-0.99224 2.54883,-2.87891 0.006,-0.31825 -0.12756,-0.63031 -0.36914,-0.85937 -4.21747,-3.98562 -8.91432,-5.99625 -14.08789,-6.03125 z m 83.8457,11.39062 c -1.07747,0.006 -2.207,0.15899 -3.38867,0.45899 -8.1933,2.07997 -13.15224,7.25794 -14.8789,15.53125 -1.17334,5.6333 0.38945,10.04187 4.68945,13.22851 0.83333,0.56 1.81279,0.61039 2.93945,0.15039 2.66,-1.10666 5.05303,-2.22604 7.17969,-3.35937 1.69333,-0.9 1.57706,-1.34341 -0.34961,-1.33008 l -7.26953,0.0391 c -1.13333,-0.16666 -1.86279,-0.61627 -2.18945,-1.34961 -2.06,-4.65997 -1.43441,-8.74333 1.8789,-12.25 2.17333,-2.30664 4.86985,-4.1462 8.08985,-5.51953 2.40664,-1.02 4.19468,-1.63318 5.36132,-1.83984 1.92667,-0.34 3.86193,-0.0931 5.8086,0.74023 0.98666,0.42 1.12659,0.22659 0.41992,-0.58008 -2.295,-2.62997 -5.05852,-3.93742 -8.29102,-3.91992 z m -144.92382,4.38281 c -2.73625,-0.0193 -5.03621,1.85545 -5.39844,4.4004 -0.40215,2.82673 1.71396,5.46575 4.72656,5.89453 3.01196,0.42773 5.77914,-1.51587 6.18164,-4.3418 0.40215,-2.82673 -1.71396,-5.46575 -4.72656,-5.89453 -0.25958,-0.037 -0.52131,-0.0566 -0.7832,-0.0586 z m 58.26562,0.0274 c -3.004,3e-4 -5.43915,2.43545 -5.43945,5.43945 3e-4,3.004 2.43545,5.43916 5.43945,5.43946 3.00401,-3e-4 5.43916,-2.43545 5.43946,-5.43946 -3e-4,-3.004 -2.43546,-5.43915 -5.43946,-5.43945 z m 86.20703,7.51953 c -2.10399,-0.0218 -4.25,0.62383 -6.4375,1.93945 -1.38,0.82667 -2.17223,2.12086 -2.3789,3.88086 -0.0867,0.70667 0.009,1.2993 0.28906,1.7793 0.54,0.92667 1.31984,0.87317 2.33984,-0.16016 2.94667,-2.99998 6.23777,-4.75929 9.8711,-5.27929 1.12889,-0.009 2.25828,0.20567 3.33984,0.85937 1.04667,0.57333 1.03542,0.45086 -0.0312,-0.36914 -2.27729,-1.7425 -4.60765,-2.62571 -6.99219,-2.65039 z m -128.22265,36.94526 c 1.42333,-0.0733 2.85492,0.0187 4.29492,0.27539 0.34,0.06 0.33368,0.0991 -0.0195,0.11914 l -7.06055,0.39063 c -0.68049,0.16571 -0.87758,0.21212 -1.36914,0.0195 l -0.0898,-0.0293 c -0.0667,-0.02 -0.0667,-0.0405 0,-0.0605 1.40662,-0.40334 2.8208,-0.64151 4.24414,-0.71485 z m 3.41601,2.36914 c 2.27333,0.13 4.67566,0.52555 7.20899,1.18555 5.03329,1.31333 9.71439,3.43581 14.04101,6.36914 2.28667,1.55333 4.78357,3.43706 7.49024,5.65039 2.56662,2.1 4.79922,4.29341 6.69922,6.58008 0.93995,1.14 0.77329,2.08961 -0.5,2.84961 -10.43329,6.19329 -20.32021,6.00807 -29.66016,-0.5586 -2.08,-1.46662 -4.21683,-2.84423 -6.41016,-4.13085 -0.27085,-0.16101 -0.60805,-0.16101 -0.8789,0 -1.55333,0.91329 -3.0142,1.96682 -4.38086,3.16015 -8.68662,7.58662 -17.91927,8.08666 -27.69922,1.5 -0.27714,-0.17879 -0.31583,-0.57123 -0.0801,-0.81054 4.94666,-5.11333 9.98891,-10.05679 15.12891,-14.83008 3.72662,-3.45333 7.93137,-5.6386 12.61132,-6.5586 2.01334,-0.4 4.15636,-0.53625 6.42969,-0.40625 z"
       inkscape:label="hipster"
       sodipodi:nodetypes="ccccccccccccccccccccccccccccccccccccsccccccccccccccccccccccccccccccccscsccccccccccccccccccccssscccsccccccccccccscccccccccccccccccccccccccccccccccccccccccscccccccccccccccccccccccccccccccccccccccccccccccccccccccccccccccccccccssscccccccccsscccccccccscccccccccccccssccccsccccccscccccccsscccccccccscccccccccccccss" />
    <path
       id="path2948"
       class="UnoptimicedTransforms"
       inkscape:label="inner-hexagon"
       d="m 525.66016,123.54492 c -22.73457,1.76729 -40.1826,19.19107 -60.01615,28.819 -53.81854,32.24541 -108.51099,63.32979 -161.14567,97.36568 -20.54974,17.91033 -11.50031,46.83677 -13.50414,70.46998 0.4882,49.58647 -1.53092,99.41438 1.18033,148.84792 6.61722,26.14412 34.72607,34.97808 54.98195,48.15527 52.83052,30.53961 105.20672,61.97808 158.824,91.08629 27.14713,13.55956 51.50472,-9.1593 74.03548,-21.2102 51.84838,-31.01929 104.78234,-60.25993 156.09884,-92.14205 25.89722,-18.02692 18.64012,-51.90492 19.64931,-78.77864 -0.70567,-47.298 1.49773,-94.79589 -1.58476,-141.95755 -6.02945,-30.3566 -39.14622,-39.53442 -60.78504,-56.32651 -46.11199,-28.46831 -93.47768,-54.84937 -139.41396,-83.63388 -8.70598,-5.16006 -17.77871,-10.96638 -28.32019,-10.69531 z m -1.69727,14.8418 c 22.97396,2.87027 39.7383,22.16465 60.13248,31.8618 47.20713,28.90071 94.42141,57.80732 141.85385,86.30226 25.51907,19.8311 9.357,56.91443 13.81049,84.37106 -0.86299,41.91268 1.56652,84.05056 -1.08007,125.82816 -18.00704,19.3965 -42.06871,33.58558 -64.35013,47.83681 -46.14616,26.69232 -91.5115,55.03738 -138.51139,80.06608 -22.50892,7.31685 -41.99284,-11.45561 -60.99667,-20.54785 C 422.1865,543.27622 368.54503,513.93219 317.18945,481.06055 300.49497,467.48258 308.68304,444.06349 307,425.45591 c 0.34848,-50.53957 -0.71868,-101.1941 0.57452,-151.65635 6.70082,-21.1615 32.04597,-26.18671 48.11976,-38.49322 46.27565,-27.95881 92.79083,-55.46785 139.30572,-83.01728 7.67265,-4.20444 18.25201,-13.29184 28.96289,-13.90234 z m 16.67773,469.67383 c -9.30799,3.10746 -9.30787,3.10791 0,0 z"
       style="display:inline;fill:#00000f;fill-opacity:1;stroke:none;stroke-opacity:1"
       sodipodi:nodetypes="cccccccccccccccccccccccccccccc"
       transform="translate(-170.80842,-87.151283)" />
    <path
       id="path106"
       style="color:#000000;display:inline;fill:#000000;fill-opacity:1;-inkscape-stroke:none"
       d="M 351.80877,12.534264 C 298.61288,17.238207 247.94953,37.498837 199.70599,59.307047 139.4305,94.308747 101.88074,158.27072 78.373383,222.03316 c -16.68423,40.61113 -10.1193,85.57128 4.57202,125.64512 22.318787,66.55507 64.437917,130.98626 128.050187,164.09561 43.22311,17.00529 88.56509,30.24478 134.79045,35.49382 38.48261,1.43742 75.62873,-11.7963 112.52328,-20.95966 69.61017,-16.29501 118.57252,-76.44989 147.04323,-138.82354 16.09634,-38.89843 32.87393,-80.43072 29.05306,-123.34188 -14.3974,-76.2672 -54.96053,-149.26001 -116.3299,-197.593993 -33.08074,-23.2744 -73.44541,-33.18254 -111.39424,-45.46861 -17.9112,-4.74299 -36.21442,-9.088818 -54.8727,-8.545763 z m 1.46508,14.764343 c 38.38917,1.38662 75.57689,18.60473 112.1562,29.11684 46.06951,11.94429 78.86922,49.261113 101.81698,89.056823 25.00134,41.2131 48.53166,86.56769 50.86526,135.55811 -4.29342,43.68057 -21.10562,85.53494 -41.33989,124.06967 -24.52651,47.18118 -61.51831,93.58717 -116.32034,104.98315 -47.38853,9.7462 -97.01389,29.44425 -145.76716,17.27944 C 265.24081,515.02546 209.89238,508.58052 173.6185,468.3049 126.82443,418.28782 97.894513,353.02736 85.365393,286.09053 c -1.98442,-50.61185 24.831217,-96.58705 49.264487,-139.05827 23.22395,-40.26364 57.09218,-78.810243 103.46247,-91.379643 37.87999,-10.26797 75.62561,-26.39456 115.1815,-28.35401 z"
       inkscape:label="outer-hexagon"
       sodipodi:nodetypes="ccccccccccccccccccscccsc" />
    <path
       id="ellipse22"
       d="m 259.48614,-33.469039 a 6.0599999,5.0900002 2.5 0 0 -0.8589,-0.09051 6.0599999,5.0900002 2.5 0 0 -6.27685,4.821606 6.0599999,5.0900002 2.5 0 0 5.83197,5.349166 6.0599999,5.0900002 2.5 0 0 6.27684,-4.821605 6.0599999,5.0900002 2.5 0 0 -4.97306,-5.258661 z M 0.87322856,-5.7012504 A 6.1300001,5.7600002 -180 0 0 2.0302019e-4,-5.7601612 6.1300001,5.7600002 -180 0 0 -6.1295532,-2.30855e-4 6.1300001,5.7600002 -180 0 0 -3.2925714e-4,5.759655 6.1300001,5.7600002 -180 0 0 6.129427,-2.7538168e-4 6.1300001,5.7600002 -180 0 0 0.87322856,-5.7012504 Z M 534.66383,109.10055 a 5.8099999,5.8099999 0 0 0 -6.53669,4.97963 5.8099999,5.8099999 0 0 0 4.97962,6.53668 5.8099999,5.8099999 0 0 0 6.53476,-4.97988 5.8099999,5.8099999 0 0 0 -4.97769,-6.53643 z M -67.924236,77.368929 c -0.686847,-0.07879 -1.403507,-0.0479 -2.125274,0.106831 -3.299521,0.707337 -5.446065,3.745708 -4.794257,6.786012 0.651767,3.040298 3.855396,4.93066 7.1549,4.223301 3.299521,-0.707337 5.446065,-3.745708 4.794257,-6.786012 -0.509193,-2.375233 -2.576601,-4.048753 -5.029626,-4.330132 z M 545.99241,231.84038 a 13.45,13.82 65.5 0 0 -7.68299,1.15483 13.45,13.82 65.5 0 0 -6.99824,17.97046 13.45,13.82 65.5 0 0 18.15296,6.50851 13.45,13.82 65.5 0 0 6.99824,-17.97046 13.45,13.82 65.5 0 0 -10.46997,-7.66334 z M -95.487228,211.27389 a 13.5,14.13 64.2 0 0 -7.810172,1.39582 13.5,14.13 64.2 0 0 -6.8463,18.30437 13.5,14.13 64.2 0 0 18.597485,6.00494 13.5,14.13 64.2 0 0 6.846296,-18.30438 13.5,14.13 64.2 0 0 -10.787309,-7.40075 z M 511.55472,360.54294 a 5.8699999,5.8699999 0 0 0 -6.60261,5.02984 5.8699999,5.8699999 0 0 0 5.02984,6.6026 5.8699999,5.8699999 0 0 0 6.6026,-5.02983 5.8699999,5.8699999 0 0 0 -5.02983,-6.60261 z M -133.38795,276.0572 a 5.6900001,6.0300002 72.9 0 0 -2.54602,0.24506 5.6900001,6.0300002 72.9 0 0 -4.08918,7.21245 5.6900001,6.0300002 72.9 0 0 7.43523,3.66599 5.6900001,6.0300002 72.9 0 0 4.09111,-7.21219 5.6900001,6.0300002 72.9 0 0 -4.89114,-3.91131 z m 597.91371,167.59995 a 5.8600001,5.46 19.1 0 0 -6.5188,3.46248 5.8600001,5.46 19.1 0 0 3.75147,7.07819 5.8600001,5.46 19.1 0 0 7.3248,-3.24314 5.8600001,5.46 19.1 0 0 -3.75173,-7.07625 5.8600001,5.46 19.1 0 0 -0.80574,-0.22128 z m -572.25514,-53.70541 a 5.8200002,5.8200002 0 0 0 -6.54768,4.98799 5.8200002,5.8200002 0 0 0 4.98799,6.54768 5.8200002,5.8200002 0 0 0 6.54768,-4.98799 5.8200002,5.8200002 0 0 0 -4.98799,-6.54768 z m 506.76323,97.66269 a 13.78,14.57 67.1 0 0 -8.10833,1.05002 13.78,14.57 67.1 0 0 -8.05847,18.3632 13.78,14.57 67.1 0 0 18.78302,7.02335 13.78,14.57 67.1 0 0 8.0604,-18.36294 13.78,14.57 67.1 0 0 -10.67662,-8.07363 z M -12.381048,440.10905 a 14.08,14.08 0 0 0 -15.839657,12.06658 14.08,14.08 0 0 0 12.066585,15.83966 14.08,14.08 0 0 0 15.83965721,-12.06658 14.08,14.08 0 0 0 -12.06658521,-15.83966 z"
       transform="rotate(-7.7,555.40741,-718.45902)"
       style="display:inline;fill:#54b6bc;fill-opacity:1"
       inkscape:label="bubbles" />
  </g>
</svg>
