<?xml version="1.0" encoding="UTF-8" standalone="no"?>
<svg
   version="1.1"
   viewBox="0 0 512 512"
   id="svg114"
   sodipodi:docname="chainraise-logo.svg"
   inkscape:version="1.2.2 (b0a8486541, 2022-12-01)"
   width="512"
   height="512"
   inkscape:export-filename="chainraise.png"
   inkscape:export-xdpi="96"
   inkscape:export-ydpi="96"
   xmlns:inkscape="http://www.inkscape.org/namespaces/inkscape"
   xmlns:sodipodi="http://sodipodi.sourceforge.net/DTD/sodipodi-0.dtd"
   xmlns="http://www.w3.org/2000/svg"
   xmlns:svg="http://www.w3.org/2000/svg">
  <defs
     id="defs118">
    <clipPath
       clipPathUnits="userSpaceOnUse"
       id="clipPath1076">
      <path
         style="fill:#000000;fill-opacity:1;stroke:none;stroke-width:1px;stroke-linecap:butt;stroke-linejoin:miter;stroke-opacity:1"
         d="m 331.18234,237.36615 c 17.47632,22.17051 -0.50767,39.70399 32.02219,67.01447 27.52651,23.10993 37.98986,8.2167 69.23599,22.21208 31.59421,14.15126 24.73576,37.84844 53.59288,56.97223 33.86143,22.44017 67.19043,-4.01234 108.16327,30.13654 21.39146,17.82874 22.40382,34.03565 44.32277,51.21171 40.40376,31.66106 123.99856,37.09623 123.99856,37.09623 L 525.32406,787.63111 43.78879,490.05776 250.73746,186.04104 c 0,0 60.75389,26.34506 80.44488,51.32511 z"
         id="path1078"
         sodipodi:nodetypes="ssssssccccs"
         inkscape:label="mask" />
    </clipPath>
  </defs>
  <sodipodi:namedview
     id="namedview116"
     pagecolor="#ffffff"
     bordercolor="#666666"
     borderopacity="1.0"
     inkscape:showpageshadow="2"
     inkscape:pageopacity="0.0"
     inkscape:pagecheckerboard="0"
     inkscape:deskcolor="#d1d1d1"
     showgrid="false"
     inkscape:zoom="0.70710678"
     inkscape:cx="166.17009"
     inkscape:cy="291.32799"
     inkscape:window-width="1920"
     inkscape:window-height="988"
     inkscape:window-x="0"
     inkscape:window-y="0"
     inkscape:window-maximized="1"
     inkscape:current-layer="svg114" />
  <g
     id="g313"
     transform="translate(6.0000029,19.91857)"
     inkscape:label="logo">
    <path
       fill="#dee5e1"
       fill-opacity="1"
       d="m 341.06044,35.18618 q 13.10859,4.29891 23.37477,8.218245 14.45917,5.52591 27.1617,15.174183 17.92831,13.770637 30.43664,30.948628 19.2171,26.402544 35.85662,57.713094 14.76812,27.77078 23.79848,61.2352 2.79827,10.38094 3.51328,17.26626 1.23583,11.84628 -0.71501,23.23353 -2.75413,16.05692 -8.55369,33.93227 -3.93699,12.1464 -8.38596,24.12509 -6.93828,18.81987 -16.63952,36.36861 -7.4944,13.56761 -15.6332,26.74681 -9.31284,15.08591 -21.07967,28.33574 -12.66722,14.27379 -30.50726,25.95235 -17.61935,10.44273 -40.38504,15.92451 -37.45437,9.03036 -66.77876,14.19434 -10.99003,1.93319 -17.48695,2.32159 -10.28384,0.60026 -20.11748,-0.62674 -13.4352,-1.68602 -28.11505,-4.92565 -12.21703,-2.70999 -12.31413,-2.72764 -17.22212,-3.68983 -34.34715,-7.79454 -18.98759,-4.71379 -29.5539,-9.10098 -19.08469,-7.93577 -33.42911,-20.85898 -8.324171,-7.4944 -18.263744,-18.84635 -27.099908,-32.99657 -42.812558,-68.5972 -13.32044,-30.18064 -21.662268,-62.10027 -4.104709,-15.66852 -4.378357,-24.62826 -0.335438,-10.69872 1.747812,-21.18559 1.906704,-9.62179 4.837378,-18.97876 8.712573,-26.43786 23.374771,-53.67901 15.721477,-29.22729 32.54637,-51.754641 9.153943,-12.252337 23.339463,-24.513503 13.744153,-12.3053 30.816213,-19.340683 5.09337,-2.100905 10.27501,-3.954645 36.09496,-12.93204 81.60868,-24.407571 29.75694,-7.503232 57.99557,-0.414885 30.43664,7.635642 60.47605,16.745448 z M 66.345059,126.36369 q -13.249824,6.92063 -18.616842,20.49706 -1.15638,2.92185 -1.641883,5.83487 -0.494331,3.00129 -0.503158,6.0732 -0.0088,11.47553 0.05296,22.95107 -0.344266,106.07804 0.185374,139.47183 0.07062,4.1665 3.124875,11.25485 l 2.392207,4.22829 q 5.375845,9.27753 14.176694,14.47682 71.121814,42.00927 160.736884,93.21662 4.44897,2.54228 9.11863,4.63435 8.76554,3.93699 18.0872,3.63686 5.75542,-0.17654 12.00517,-2.6482 5.56122,-2.198 11.14009,-5.4906 32.20211,-19.0582 105.3189,-61.77366 32.83767,-18.95228 52.69034,-31.134 16.41001,-10.07198 20.26755,-28.62703 0.79446,-3.82224 0.89156,-9.34815 0.0795,-3.80458 0.0795,-9.41876 0.0441,-56.6803 -0.053,-113.36059 0,-1.55361 -0.14124,-4.89034 -0.10592,-2.44517 -0.0618,-4.89034 0.22069,-12.16407 -0.18537,-19.64082 -0.81212,-15.1477 -10.24853,-26.33193 -3.47797,-4.12236 -10.48687,-8.88912 -8.84499,-6.00258 -18.03424,-11.47553 Q 405.703,108.20587 405.6412,108.16173 341.7225,69.303816 277.742,30.543004 266.84907,23.94016 262.09114,22.527787 252.75182,19.73835 243.3772,22.404204 238.62809,23.754786 227.59393,30.207565 146.56786,77.610337 66.345065,126.36369 Z"
       id="path12"
       inkscape:label="decoration"
       style="display:inline;stroke-width:1" />
    <path
       id="path3226"
       style="color:#000000;display:inline;fill:#51b7c3;fill-opacity:1;stroke-width:1;stroke-linecap:round;stroke-linejoin:round;-inkscape-stroke:none"
       inkscape:label="right-bg"
       d="m 250.58974,31.750071 c -3.30949,0.09175 -6.56082,1.105199 -9.38307,2.82562 -16.04051,8.652664 -31.57681,18.192759 -47.2517,27.480859 -27.6773,16.509655 -55.40858,32.928987 -83.0123,49.56152 -4.69624,2.81153 -9.33331,5.71959 -13.977701,8.61475 -9.237721,5.59237 -19.146144,10.14943 -27.705513,16.8074 -4.138333,3.24696 -7.791012,7.2694 -9.924357,12.12639 -1.04912,2.28865 -1.758634,4.75387 -1.798304,7.28482 -0.214372,3.87332 -0.15793,7.75571 -0.257405,11.63285 -0.478583,35.95604 -0.429247,71.91617 -0.439698,107.87461 0.03752,13.03173 -0.03222,26.06937 0.474036,39.09365 0.199233,3.82513 0.367359,7.68558 1.219487,11.43213 0.575242,2.41137 1.711876,4.65979 3.244892,6.60237 2.01498,2.79213 4.645948,5.05857 7.441741,7.03812 5.820468,4.18502 12.016761,7.80714 18.11913,11.55789 27.047442,16.35897 54.452242,32.11564 81.811832,47.944 17.51769,10.09862 35.02647,20.20596 52.58668,30.23449 4.63034,2.61062 9.2985,5.16656 14.12854,7.39235 1.12149,0.51319 2.4399,1.08166 3.66748,1.54742 4.35261,1.69897 9.04835,2.6819 13.73349,2.28787 6.72065,-0.49144 12.99882,-3.30177 18.79301,-6.57924 13.1195,-7.24222 26.072,-14.78108 39.05667,-22.26083 19.19111,-11.10329 38.34475,-22.28317 57.40271,-33.595 21.52282,-14.3693 43.07342,-28.74952 63.56742,-44.57275 4.04272,-3.13465 8.02894,-6.34237 11.93873,-9.64145 0.641,-1.48233 0.23615,-3.1422 0.35382,-4.70435 0.0879,-40.63048 -0.0211,-81.26251 0.44175,-121.89117 0.10287,-6.20507 0.13413,-12.41324 0.37362,-18.61475 0.25669,-5.17245 0.34425,-10.36814 -0.12268,-15.53165 -0.0537,-0.43703 -0.11547,-1.18443 -0.19109,-1.74161 -0.68231,-5.8138 -2.29327,-11.62796 -5.54723,-16.55212 -1.99974,-3.15159 -4.71086,-5.77922 -7.68665,-8.00559 -5.17169,-3.92612 -10.75822,-7.25823 -16.26652,-10.6815 -13.61858,-8.31963 -27.30087,-16.53443 -40.94031,-24.81985 C 349.65578,86.868734 324.84914,71.875862 300.20957,56.610802 293.73035,52.58643 287.32386,48.447109 280.903,44.331101 c -6.26012,-3.91651 -12.58577,-7.838838 -19.47134,-10.571744 -3.44867,-1.319572 -7.13273,-2.152413 -10.84192,-2.009286 z" />
    <path
       id="path3226-6"
       style="color:#000000;display:inline;fill:#f0b9a5;fill-opacity:1;stroke-width:1.13285;stroke-linecap:round;stroke-linejoin:round;-inkscape-stroke:none"
       inkscape:label="left-bg"
       d="m 523.2207,135.60742 c -3.74914,0.10394 -7.43239,1.25202 -10.62956,3.20099 -18.17142,9.80213 -35.77164,20.60958 -53.52886,31.13156 -31.3541,18.70288 -62.76935,37.30344 -94.04009,56.14552 -5.32011,3.18503 -10.57319,6.47941 -15.83457,9.75918 -10.46491,6.33529 -21.68962,11.49774 -31.38606,19.04019 -4.68809,3.6783 -8.82601,8.2351 -11.24276,13.73732 -1.18849,2.59268 -1.99226,5.3854 -2.0372,8.25257 -0.24285,4.38787 -0.17891,8.78602 -0.2916,13.17822 -0.54216,40.73263 -0.48627,81.46989 -0.49811,122.20523 0.0425,14.76294 -0.0365,29.53257 0.53701,44.28706 0.2257,4.33328 0.41616,8.70657 1.38149,12.95083 0.65166,2.73171 1.93929,5.27882 3.67596,7.47946 2.28266,3.16306 5.26314,5.73058 8.43034,7.97311 6.59369,4.74097 13.61313,8.84428 20.52617,13.09329 30.64057,18.53219 61.68596,36.38205 92.68014,54.31314 19.84483,11.44017 39.67957,22.89022 59.57257,34.25099 5.24546,2.95743 10.53376,5.85291 16.00545,8.37439 1.27048,0.58137 2.76403,1.22535 4.15469,1.75299 4.93083,1.92467 10.25038,3.03817 15.55792,2.5918 7.61345,-0.55673 14.72565,-3.74039 21.28957,-7.45326 14.86236,-8.20432 29.53554,-16.74468 44.24516,-25.21808 21.74055,-12.5783 43.43866,-25.24338 65.02838,-38.05793 24.38202,-16.27819 48.79552,-32.56875 72.01205,-50.49402 4.57978,-3.55108 9.09554,-7.18493 13.52473,-10.92228 0.72615,-1.67925 0.26752,-3.55962 0.40082,-5.3293 0.0996,-46.02804 -0.0239,-92.05784 0.50044,-138.08382 0.11654,-7.02939 0.15195,-14.06228 0.42325,-21.08763 0.29079,-5.85959 0.38998,-11.7455 -0.13897,-17.59496 -0.0608,-0.49509 -0.13082,-1.34177 -0.21648,-1.97297 -0.77295,-6.58614 -2.59792,-13.17268 -6.28415,-18.75099 -2.2654,-3.57027 -5.33668,-6.54696 -8.70779,-9.0691 -5.85872,-4.44768 -12.18739,-8.22245 -18.42745,-12.10048 -15.42774,-9.42485 -30.92766,-18.73095 -46.37903,-28.11705 -28.07697,-17.02506 -56.17905,-34.00966 -84.09187,-51.30261 -7.33995,-4.55899 -14.59752,-9.2482 -21.87135,-13.911 -7.09175,-4.4368 -14.25773,-8.88019 -22.05802,-11.97615 -3.90681,-1.49487 -8.08028,-2.43835 -12.28222,-2.27621 z"
       clip-path="url(#clipPath1076)"
       transform="matrix(0.88273314,0,0,0.88273314,-211.27452,-87.955094)" />
    <path
       id="path2948"
       class="UnoptimicedTransforms"
       inkscape:label="inner-hexagon"
       d="m 525.66016,123.54492 c -22.73457,1.76729 -40.1826,19.19107 -60.01615,28.819 -53.81854,32.24541 -108.51099,63.32979 -161.14567,97.36568 -20.54974,17.91033 -11.50031,46.83677 -13.50414,70.46998 0.4882,49.58647 -1.53092,99.41438 1.18033,148.84792 6.61722,26.14412 34.72607,34.97808 54.98195,48.15527 52.83052,30.53961 105.20672,61.97808 158.824,91.08629 27.14713,13.55956 51.50472,-9.1593 74.03548,-21.2102 51.84838,-31.01929 104.78234,-60.25993 156.09884,-92.14205 25.89722,-18.02692 18.64012,-51.90492 19.64931,-78.77864 -0.70567,-47.298 1.49773,-94.79589 -1.58476,-141.95755 -6.02945,-30.3566 -39.14622,-39.53442 -60.78504,-56.32651 -46.11199,-28.46831 -93.47768,-54.84937 -139.41396,-83.63388 -8.70598,-5.16006 -17.77871,-10.96638 -28.32019,-10.69531 z m -1.69727,14.8418 c 22.97396,2.87027 39.7383,22.16465 60.13248,31.8618 47.20713,28.90071 94.42141,57.80732 141.85385,86.30226 25.51907,19.8311 9.357,56.91443 13.81049,84.37106 -0.86299,41.91268 1.56652,84.05056 -1.08007,125.82816 -18.00704,19.3965 -42.06871,33.58558 -64.35013,47.83681 -46.14616,26.69232 -91.5115,55.03738 -138.51139,80.06608 -22.50892,7.31685 -41.99284,-11.45561 -60.99667,-20.54785 C 422.1865,543.27622 368.54503,513.93219 317.18945,481.06055 300.49497,467.48258 308.68304,444.06349 307,425.45591 c 0.34848,-50.53957 -0.71868,-101.1941 0.57452,-151.65635 6.70082,-21.1615 32.04597,-26.18671 48.11976,-38.49322 46.27565,-27.95881 92.79083,-55.46785 139.30572,-83.01728 7.67265,-4.20444 18.25201,-13.29184 28.96289,-13.90234 z m 16.67773,469.67383 c -9.30799,3.10746 -9.30787,3.10791 0,0 z"
       style="display:inline;fill:#00000f;fill-opacity:1;stroke:none;stroke-width:1.13285;stroke-opacity:1"
       sodipodi:nodetypes="cccccccccccccccccccccccccccccc"
       transform="matrix(0.88273314,0,0,0.88273314,-211.27452,-87.955094)" />
    <path
       id="path106"
       style="color:#000000;display:inline;fill:#000000;fill-opacity:1;stroke-width:1;-inkscape-stroke:none"
       d="M 250.057,0.04064307 C 203.09922,4.1929694 158.37701,22.077699 115.79083,41.328528 62.583663,72.225689 29.437245,128.68704 8.6865221,184.97226 c -14.7277227,35.84879 -8.93264145,75.53661 4.0358739,110.91111 19.701533,58.75037 56.881485,115.62592 113.034144,144.85264 38.15447,15.01113 78.17934,26.69807 118.98399,31.33157 33.96988,1.26886 66.75999,-10.41299 99.32803,-18.50179 61.44721,-14.38414 104.6679,-67.48485 129.79994,-122.54414 14.20877,-34.33693 29.0189,-70.99886 25.64609,-108.87796 C 486.80553,154.8201 450.99911,90.38693 396.82634,47.72092 367.62487,27.175836 331.99364,18.429592 298.49495,7.5842713 282.68414,3.3974768 266.52728,-0.43872957 250.057,0.04064307 Z m 1.29327,13.03297493 c 33.8874,1.224015 66.71423,16.423011 99.004,25.702399 40.66708,10.543621 69.62047,43.484417 89.87722,78.613413 22.06951,36.38017 42.8405,76.41617 44.90045,119.66163 -3.78994,38.55829 -18.63063,75.50453 -36.49209,109.52041 -21.65036,41.64839 -54.30425,82.6125 -102.67982,92.67211 -41.83143,8.60329 -85.63738,25.99141 -128.6735,15.25313 C 173.64059,443.60628 124.7827,437.91711 92.762542,402.36449 51.455867,358.21276 25.918471,300.60518 14.858601,241.51783 13.106888,196.84107 36.777939,156.25724 58.345996,118.76648 78.846547,83.224432 108.74315,49.198068 149.67575,38.102642 183.11367,29.038765 216.43298,14.803289 251.35027,13.073618 Z"
       inkscape:label="outer-hexagon"
       sodipodi:nodetypes="ccccccccccccccccccscccsc" />
  </g>
</svg>
